<svg width="53" height="53" viewBox="0 0 53 53" fill="none" xmlns="http://www.w3.org/2000/svg">
<path d="M26.5002 0C41.1356 0 52.9999 11.8649 52.9999 26.5002C52.9999 41.1356 41.1356 53 26.5002 53C11.8642 53 0 41.1356 0 26.5002C0 11.8649 11.8642 0 26.5002 0Z" fill="#003399"/>
<path d="M24.6257 48.5175L26.5 47.1557L28.3741 48.5175L27.6584 46.314L29.5325 44.9523H27.2159L26.5 42.7487L25.7838 44.9523H23.4672L25.3414 46.314L24.6257 48.5175ZM26.5 4.48242L25.7838 6.68575H23.4672L25.3414 8.04768L24.6257 10.2509L26.5 8.88919L28.3741 10.2509L27.6584 8.04744L29.5325 6.68575H27.2159L26.5 4.48242ZM39.0992 42.3888L37.225 43.7505L37.9408 45.9541L36.0666 44.5924L34.1921 45.9541L34.908 43.7505L33.0335 42.3888H35.3505L36.0666 40.1854L36.7823 42.3888H39.0992ZM46.1025 35.3856L44.2282 36.7473L44.944 38.9509L43.0698 37.5891L41.1952 38.9509L41.9113 36.7473L40.0368 35.3856H42.3536L43.0698 33.1821L43.7859 35.3856H46.1025ZM43.0698 14.0488L43.7859 16.2524H46.1025L44.2282 17.6141L44.944 19.8175L43.0698 18.4558L41.1952 19.8175L41.9113 17.6141L40.0368 16.2524H42.3536L43.0698 14.0488ZM33.0335 9.24908H35.3505L36.0666 7.04552L36.7826 9.24908H39.0992L37.2246 10.6111L37.9408 12.8143L36.0666 11.4527L34.1921 12.8143L34.908 10.6111L33.0335 9.24908ZM47.5074 29.3841L45.6332 28.0225L43.7587 29.3841L44.4747 27.1807L42.6001 25.819H44.9171L45.6332 23.6154L46.3492 25.819H48.6658L46.7916 27.1809L47.5074 29.3841ZM13.9006 42.3888L15.7748 43.7505L15.059 45.9541L16.9333 44.5924L18.8077 45.9541L18.0917 43.7505L19.9663 42.3888H17.6493L16.9333 40.1854L16.2175 42.3888H13.9006ZM6.89732 35.3856L8.77161 36.7473L8.05586 38.9509L9.93003 37.5891L11.8046 38.9509L11.0884 36.7473L12.963 35.3856H10.6461L9.93003 33.1821L9.21392 35.3856H6.89732ZM9.93003 14.0488L9.21392 16.2524H6.89732L8.77161 17.6141L8.05586 19.8175L9.93003 18.4558L11.8046 19.8175L11.0884 17.6141L12.963 16.2524H10.6461L9.93003 14.0488ZM19.9663 9.24908H17.6493L16.9333 7.04552L16.2172 9.24908H13.9006L15.7751 10.6111L15.059 12.8143L16.9333 11.4527L18.8077 12.8143L18.0917 10.6111L19.9663 9.24908ZM5.4924 29.3841L7.36657 28.0225L9.2411 29.3841L8.52511 27.1807L10.3996 25.819H8.08268L7.36657 23.6154L6.65058 25.819H4.33398L6.20815 27.1809L5.4924 29.3841Z" fill="#FFCC02"/>
</svg>
