<svg width="53" height="53" viewBox="0 0 53 53" fill="none" xmlns="http://www.w3.org/2000/svg">
<path d="M26.5 0C33.8173 0 40.4427 2.96673 45.2382 7.76175C50.0332 12.5572 53 19.1827 53 26.5001C53 33.8173 50.0332 40.4428 45.2378 45.2379C40.4427 50.0333 33.8173 53 26.5 53C19.1826 53 12.5572 50.0333 7.76173 45.2382C2.96673 40.4428 0 33.8173 0 26.5001C0 19.1827 2.96673 12.5572 7.76173 7.76175C12.5572 2.96673 19.1826 0 26.5 0Z" fill="white"/>
<path d="M2.06445 36.7031H50.9361C46.9413 46.2592 37.5054 52.9747 26.5003 52.9747C15.4948 52.9747 6.05923 46.2592 2.06445 36.7031Z" fill="#1EB53A"/>
<path d="M52.3154 20.6071H0.68457C3.36325 8.82229 13.904 0.0256958 26.5001 0.0256958C39.0956 0.0256958 49.6364 8.82229 52.3154 20.6071Z" fill="#0099B5"/>
<path d="M50.489 37.7092H2.51069C2.35478 37.377 2.2059 37.0415 2.06416 36.703H50.9358C50.7939 37.0415 50.645 37.377 50.489 37.7092ZM0.935605 19.6013H52.0644C52.1546 19.9349 52.2383 20.2702 52.3154 20.6071H0.68457C0.76152 20.2691 0.846055 19.9342 0.935605 19.6013Z" fill="#CE1126"/>
<path d="M17.0859 5.60144C16.7535 5.54557 16.4171 5.51754 16.08 5.51764C12.7464 5.51764 10.0442 8.22017 10.0442 11.5535C10.0442 14.887 12.7464 17.5893 16.08 17.5893C16.4228 17.5893 16.7588 17.5606 17.0859 17.5055C14.231 17.0267 12.0561 14.5442 12.0561 11.5535C12.0561 8.56296 14.231 6.08026 17.0859 5.60144ZM29.6302 6.35173L29.3589 5.51764L29.088 6.35173H28.2108L28.9205 6.86762L28.6495 7.70147L29.3589 7.18606L30.0686 7.70147L29.7974 6.86725L30.5071 6.35173H29.6302ZM29.6302 11.1806L29.3589 10.3464L29.088 11.1806H28.2108L28.9205 11.6964L28.6495 12.5302L29.3589 12.0147L30.0686 12.5302L29.7974 11.696L30.5071 11.1806H29.6302ZM24.8017 11.1806L24.5304 10.3464L24.2595 11.1806H23.3823L24.092 11.6964L23.821 12.5302L24.5304 12.0147L25.2401 12.5302L24.9689 11.696L25.6786 11.1806H24.8017ZM34.459 16.0093L34.1877 15.1751L33.9167 16.0093H33.0396L33.7492 16.525L33.4783 17.3589L34.1877 16.8434L34.8974 17.3589L34.6261 16.5249L35.3358 16.0093H34.459ZM29.6302 16.0093L29.3589 15.1751L29.088 16.0093H28.2108L28.9205 16.525L28.6495 17.3589L29.3589 16.8434L30.0686 17.3589L29.7974 16.5249L30.5071 16.0093H29.6302ZM34.459 6.35173L34.1877 5.51764L33.9167 6.35173H33.0396L33.7492 6.86762L33.4783 7.70147L34.1877 7.18606L34.8974 7.70147L34.6261 6.86725L35.3358 6.35173H34.459ZM34.459 11.1806L34.1877 10.3464L33.9167 11.1806H33.0396L33.7492 11.6964L33.4783 12.5302L34.1877 12.0147L34.8974 12.5302L34.6261 11.696L35.3358 11.1806H34.459ZM39.2878 6.35173L39.0164 5.51764L38.7455 6.35173H37.8683L38.578 6.86762L38.307 7.70147L39.0164 7.18606L39.7261 7.70147L39.4549 6.86725L40.1647 6.35173H39.2878ZM39.2878 11.1806L39.0164 10.3464L38.7455 11.1806H37.8683L38.578 11.6964L38.307 12.5302L39.0164 12.0147L39.7261 12.5302L39.4549 11.696L40.1647 11.1806H39.2878ZM19.9729 16.0093L19.7017 15.1751L19.4307 16.0093H18.5536L19.2632 16.525L18.9923 17.3589L19.7017 16.8434L20.4114 17.3589L20.1401 16.5249L20.8498 16.0093H19.9729ZM24.8017 16.0093L24.5304 15.1751L24.2595 16.0093H23.3823L24.092 16.525L23.821 17.3589L24.5304 16.8434L25.2401 17.3589L24.9689 16.5249L25.6786 16.0093H24.8017ZM39.2878 16.0093L39.0164 15.1751L38.7455 16.0093H37.8683L38.578 16.525L38.307 17.3589L39.0164 16.8434L39.7261 17.3589L39.4549 16.5249L40.1647 16.0093H39.2878Z" fill="white"/>
</svg>
